# xmcd CD database file
#
# Track frame offsets:
#	150
#	31526
#	98933
#	147003
#	184450
#	217812
#
# Disc length: 3547 seconds
#
# Revision: 0
# Processed by: cddbd v1.5.1PL2 Copyright (c) Steve Scherf et al.
# Submitted via: CDex 1.60beta1
#
DISCID=490dd906
DTITLE=Bob Brookmeyer - Steeltown Friends of Mohawk Jazz Presents Bob Brookmeyer
DYEAR=2006
DGENRE=Jazz
TTITLE0=Skylark
TTITLE1=ABC Blues
TTITLE2=Almost Like Being In Love
TTITLE3=Alone Together
TTITLE4=Variations on Polkadots and Moonbeams
TTITLE5=I Love You
EXTD=YEAR: 2006
EXTT0=
EXTT1=
EXTT2=
EXTT3=
EXTT4=
EXTT5=
PLAYORDER=
